<svg width="96" height="64" viewBox="0 0 96 64" fill="none" xmlns="http://www.w3.org/2000/svg">
<path fill-rule="evenodd" clip-rule="evenodd" d="M85.4294 55.4801L85.4327 55.482C85.8325 55.714 85.9696 56.2256 85.7393 56.6265L81.8476 63.4026C81.8198 63.4557 81.7862 63.506 81.7471 63.5525C81.6601 63.6564 81.5517 63.7349 81.4323 63.7852L81.3869 63.8027L81.3465 63.816L81.3063 63.8269L81.2564 63.8376L81.2075 63.8449L81.1654 63.8489L81.1409 63.8502L81.1033 63.8509L81.0633 63.8497L81.0409 63.8481L81.0089 63.8449L80.96 63.8376L80.9243 63.8303L80.8927 63.8225L80.8507 63.81L80.8243 63.8008C80.6999 63.7559 80.5858 63.6812 80.4935 63.58C80.4435 63.5254 80.402 63.466 80.3688 63.4026L76.4771 56.6265C76.2531 56.2364 76.3768 55.7416 76.7519 55.5014L76.787 55.4801C77.1748 55.2574 77.6668 55.3816 77.9039 55.7555L77.9231 55.7873L81.1081 61.333L84.2934 55.7873C84.5222 55.3887 85.0309 55.2512 85.4294 55.4801ZM67.0308 55.3694C67.469 55.3694 67.8285 55.7067 67.8638 56.1358L67.8659 56.1725L67.8664 56.1897L67.8666 62.8921C67.8666 63.3537 67.4924 63.7279 67.0308 63.7279H60.3264C59.8648 63.7279 59.4905 63.3537 59.4905 62.8921V56.2053C59.4905 55.7436 59.8648 55.3694 60.3264 55.3694H67.0308ZM27.2444 55.3694C27.706 55.3694 28.0802 55.7436 28.0802 56.2053C28.0802 56.6669 27.706 57.0411 27.2444 57.0411L21.3793 57.0411V58.7127L27.2444 58.7128C27.6826 58.7128 28.0421 59.0501 28.0774 59.4792L28.0795 59.5159L28.0802 59.5504V62.8921C28.0802 63.3537 27.706 63.7279 27.2444 63.7279H20.54C20.0784 63.7279 19.7041 63.3537 19.7041 62.8921C19.7041 62.4305 20.0784 62.0562 20.54 62.0562L26.405 62.0562V60.3845L20.54 60.3845C20.0784 60.3845 19.7041 60.0103 19.7041 59.5487V56.2053C19.7041 55.7436 20.0784 55.3694 20.54 55.3694H27.2444ZM36.9754 55.3694C37.437 55.3694 37.8113 55.7436 37.8113 56.2053C37.8113 56.6669 37.437 57.0411 36.9754 57.0411L31.1103 57.0411V62.0562L36.9754 62.0562C37.437 62.0562 37.8113 62.4305 37.8113 62.8921C37.8113 63.3537 37.437 63.7279 36.9754 63.7279H30.271C29.8094 63.7279 29.4352 63.3537 29.4352 62.8921V56.2053C29.4352 55.7436 29.8094 55.3694 30.271 55.3694H36.9754ZM94.7457 55.3694C95.2074 55.3694 95.5816 55.7436 95.5816 56.2053C95.5816 56.6669 95.2074 57.0411 94.7457 57.0411L88.8807 57.0411V62.0562L94.7457 62.0562C95.2074 62.0562 95.5816 62.4305 95.5816 62.8921C95.5816 63.3537 95.2074 63.7279 94.7457 63.7279H88.0414C87.5797 63.7279 87.2055 63.3537 87.2055 62.8921V56.2053C87.2055 55.7436 87.5797 55.3694 88.0414 55.3694H94.7457ZM17.6365 55.3694C18.0981 55.3694 18.4724 55.7436 18.4724 56.2053C18.4724 56.6669 18.0981 57.0411 17.6365 57.0411L11.7714 57.0411V62.0562L17.6365 62.0562C18.0981 62.0562 18.4724 62.4305 18.4724 62.8921C18.4724 63.3537 18.0981 63.7279 17.6365 63.7279H10.9321C10.4705 63.7279 10.0963 63.3537 10.0963 62.8921V56.2053C10.0963 55.7436 10.4705 55.3694 10.9321 55.3694H17.6365ZM46.5833 55.3694C47.0215 55.3694 47.381 55.7067 47.4163 56.1358L47.4184 56.1725L47.4189 56.1897L47.4191 62.8903C47.4191 63.3529 47.0441 63.7279 46.5815 63.7279C46.1189 63.7279 45.7439 63.3529 45.7439 62.8903L45.7439 57.0411H40.7182L40.7182 62.8903C40.7182 63.3529 40.3432 63.7279 39.8806 63.7279C39.418 63.7279 39.043 63.3529 39.043 62.8903V56.2053L39.0437 56.1708C39.0618 55.7252 39.4288 55.3694 39.8789 55.3694H46.5833ZM4.52585 55.3694C4.66472 55.3694 4.79568 55.4033 4.91092 55.4632L4.94874 55.4841C5.02208 55.5224 5.09088 55.5723 5.15251 55.6338L8.40261 58.8741C8.42429 58.8902 8.44538 58.9075 8.46578 58.9259L8.4976 58.9563C8.66159 59.1207 8.74275 59.3365 8.74119 59.5518C8.74269 59.7537 8.67146 59.956 8.52739 60.1161L8.49585 60.1493C8.46632 60.1787 8.43514 60.2055 8.40261 60.2297L5.15251 63.47C5.0607 63.5616 4.95298 63.6275 4.83828 63.6677C4.74177 63.7065 4.63631 63.7279 4.52585 63.7279H1.20109C0.739459 63.7279 0.365234 63.3537 0.365234 62.8921V56.2053C0.365234 55.7436 0.739459 55.3694 1.20109 55.3694H4.52585ZM70.0592 55.3694C70.5102 55.3694 70.878 55.7259 70.8961 56.1725L70.8968 56.207L70.8967 62.0562L76.7618 62.0562C77.2119 62.0562 77.5789 62.412 77.5969 62.8576L77.5976 62.8921C77.5976 63.3422 77.2419 63.7092 76.7962 63.7272L76.7618 63.7279H70.0574C69.6073 63.7279 69.2403 63.3722 69.2223 62.9265L69.2216 62.8921V56.207C69.2216 55.7444 69.5966 55.3694 70.0592 55.3694ZM66.1914 57.0411H61.1657V62.0562H66.1914V57.0411ZM4.19277 57.0411H2.04184V62.0562H4.19917L6.71112 59.5519L4.19277 57.0411ZM33.625 58.7128C34.0866 58.7128 34.4608 59.0871 34.4608 59.5487C34.4608 59.9988 34.1051 60.3658 33.6594 60.3838L33.6215 60.3845C33.1598 60.3845 32.7856 60.0103 32.7856 59.5487C32.7856 59.0986 33.1413 58.7316 33.587 58.7135L33.625 58.7128ZM91.3953 58.7128C91.8569 58.7128 92.2312 59.0871 92.2312 59.5487C92.2312 59.9988 91.8754 60.3658 91.4298 60.3838L91.3918 60.3845C90.9302 60.3845 90.5559 60.0103 90.5559 59.5487C90.5559 59.0986 90.9117 58.7316 91.3573 58.7135L91.3953 58.7128ZM14.2861 58.7128C14.7477 58.7128 15.1219 59.0871 15.1219 59.5487C15.1219 59.9988 14.7662 60.3658 14.3205 60.3838L14.2826 60.3845C13.8209 60.3845 13.4467 60.0103 13.4467 59.5487C13.4467 59.0986 13.8025 58.7316 14.2481 58.7135L14.2861 58.7128ZM53.5736 63.8489L53.5491 63.8502L53.4901 63.8504L53.4491 63.8481L53.4171 63.8449L53.3682 63.8376L53.3325 63.8303L53.3009 63.8225L53.2589 63.81L53.2325 63.8008C53.1081 63.7559 52.9939 63.6812 52.9017 63.58C52.8517 63.5254 52.8102 63.466 52.777 63.4026L48.8853 56.6265C48.6613 56.2364 48.785 55.7416 49.1601 55.5014L49.1952 55.4801C49.583 55.2574 50.075 55.3816 50.3121 55.7555L50.3313 55.7873L53.5163 61.333L56.7016 55.7873C56.9243 55.3995 57.4118 55.2588 57.8051 55.4623L57.8409 55.482C58.2407 55.714 58.3778 56.2256 58.1475 56.6265L54.2558 63.4026C54.228 63.4557 54.1944 63.506 54.1553 63.5525C54.0683 63.6564 53.9599 63.7349 53.8405 63.7852L53.7951 63.8027L53.7454 63.8187L53.7145 63.8269L53.6646 63.8376L53.6157 63.8449L53.5736 63.8489ZM21.7531 43.8474C22.2258 43.8474 22.6091 44.2306 22.6091 44.7034V48.0961C22.6091 48.557 22.2448 48.9328 21.7884 48.9513L21.7452 48.952L15.8394 48.952L15.8394 51.473C15.8394 51.9457 15.4562 52.3289 14.9835 52.3289C14.5108 52.3289 14.1276 51.9457 14.1276 51.473V44.7034C14.1276 44.2306 14.5108 43.8474 14.9835 43.8474C14.998 43.8474 15.0124 43.8478 15.0267 43.8485L15.0479 43.8477L21.7531 43.8474ZM20.8971 45.5751H15.8394V47.2242H20.8971V45.5751ZM31.5738 43.8474C32.0465 43.8474 32.4297 44.2306 32.4297 44.7034V48.0961C32.4297 48.557 32.0654 48.9328 31.609 48.9513L31.5658 48.952L30.4905 48.952L32.162 50.6389C32.4971 50.9772 32.4971 51.5223 32.162 51.8606C31.8402 52.1853 31.322 52.1969 30.9862 51.8937L30.9515 51.8606L27.8153 48.6953C27.4801 48.3571 27.4801 47.8119 27.8153 47.4737C27.9991 47.2882 28.247 47.2049 28.4883 47.224L30.7177 47.2242V45.5751H25.66L25.6601 51.473C25.6601 51.9457 25.2769 52.3289 24.8042 52.3289C24.3314 52.3289 23.9482 51.9457 23.9482 51.473V44.7034C23.9482 44.2306 24.3314 43.8474 24.8042 43.8474C24.8186 43.8474 24.833 43.8478 24.8473 43.8485L24.8685 43.8477L31.5738 43.8474ZM41.6176 52.3289H34.9337C34.9194 52.3289 34.9052 52.3285 34.8911 52.3279C34.8769 52.3285 34.8625 52.3289 34.848 52.3289C34.3753 52.3289 33.9921 51.9457 33.9921 51.473V44.7034C33.9921 44.2306 34.3753 43.8474 34.848 43.8474C34.8625 43.8474 34.8769 43.8478 34.8912 43.8485L34.9124 43.8477L41.6176 43.8474C42.0903 43.8474 42.4735 44.2306 42.4735 44.7034V51.473C42.4735 51.9457 42.0903 52.3289 41.6176 52.3289ZM40.7615 45.5751H35.7039V50.6011H40.7615V45.5751ZM51.4303 43.8474C51.9074 43.8474 52.2942 44.2342 52.2942 44.7113V51.465C52.2942 51.9421 51.9074 52.3289 51.4303 52.3289H44.6765C44.1995 52.3289 43.8127 51.9421 43.8127 51.465C43.8127 50.9879 44.1995 50.6012 44.6765 50.6012L50.5663 50.6011V45.5751L48.9173 45.5751C48.4402 45.5751 48.0534 45.1884 48.0534 44.7113C48.0534 44.2342 48.4402 43.8474 48.9173 43.8474H51.4303ZM71.0716 43.8474C71.5487 43.8474 71.9354 44.2342 71.9354 44.7113C71.9354 45.1884 71.5487 45.5751 71.0716 45.5751L68.5585 45.5751L68.5585 51.465C68.5585 51.9421 68.1718 52.3289 67.6947 52.3289C67.2176 52.3289 66.8308 51.9421 66.8308 51.465L66.8307 45.5751L64.3178 45.5751C63.8407 45.5751 63.454 45.1884 63.454 44.7113C63.454 44.2342 63.8407 43.8474 64.3178 43.8474H71.0716ZM80.9001 52.3289H74.2163C74.202 52.3289 74.1878 52.3285 74.1736 52.3279C74.1594 52.3285 74.145 52.3289 74.1305 52.3289C73.6578 52.3289 73.2746 51.9457 73.2746 51.473V44.7034C73.2746 44.2306 73.6578 43.8474 74.1305 43.8474C74.145 43.8474 74.1594 43.8478 74.1737 43.8485L74.1949 43.8477L80.9001 43.8474C81.3728 43.8474 81.7561 44.2306 81.7561 44.7034V51.473C81.7561 51.9457 81.3728 52.3289 80.9001 52.3289ZM80.0441 45.5751H74.9864V50.6011H80.0441V45.5751ZM61.2666 43.8474C61.7351 43.8474 62.1148 44.2272 62.1148 44.6956C62.1148 45.164 61.7351 45.5437 61.2666 45.5437L55.3296 45.5436V50.6324L61.2666 50.6326C61.7351 50.6326 62.1148 51.0123 62.1148 51.4807C62.1148 51.9492 61.7351 52.3289 61.2666 52.3289H54.4815C54.0131 52.3289 53.6333 51.9492 53.6333 51.4807V44.6956C53.6333 44.2272 54.0131 43.8474 54.4815 43.8474H61.2666ZM57.8741 47.24C58.3425 47.24 58.7222 47.6197 58.7222 48.0882C58.7222 48.5566 58.3425 48.9363 57.8741 48.9363C57.4056 48.9363 57.0259 48.5566 57.0259 48.0882C57.0259 47.6197 57.4056 47.24 57.8741 47.24Z" fill="white"/>
<path fill-rule="evenodd" clip-rule="evenodd" d="M60.2955 22.0037L60.3622 22.0048L60.4557 22.0105L60.5119 22.0163L60.5729 22.0244L60.6117 22.0307L60.6864 22.0453L60.7296 22.0552L60.7836 22.0691L60.8404 22.0857L60.9382 22.119L61.0145 22.1494L61.0883 22.1827L61.1369 22.2069L61.2051 22.2438L61.2728 22.2843L61.3094 22.308L61.38 22.3571L61.4204 22.3874L61.459 22.4181L61.512 22.4631L61.5722 22.5185L61.6291 22.5759L61.6457 22.5936L61.6847 22.637L61.7393 22.7028L61.7655 22.7367L61.807 22.794L61.833 22.8324L61.8573 22.8702L61.888 22.9211L61.9246 22.9872C61.9358 23.0086 61.9467 23.0302 61.9572 23.0521C61.9667 23.072 61.9758 23.092 61.9846 23.1123C62.0115 23.1744 62.0351 23.2382 62.0552 23.3036C62.0618 23.3254 62.0681 23.3474 62.074 23.3695C62.0926 23.4392 62.1071 23.5106 62.1175 23.5833L62.1266 23.6587L62.1292 23.6872C62.1323 23.7236 62.1343 23.7602 62.1352 23.7972L62.1358 23.844V32.9655L62.135 33.018L62.1319 33.0855L62.1277 33.1394L62.1223 33.1895L62.1163 33.2343C62.1128 33.2578 62.1089 33.2812 62.1046 33.3044L62.0961 33.3472L62.0831 33.4042L62.0703 33.4538C62.0616 33.4853 62.0522 33.5164 62.0419 33.5472C62.0328 33.5745 62.0233 33.6009 62.0134 33.6268L61.9834 33.6999C61.9706 33.7293 61.957 33.7584 61.9426 33.7871L61.9255 33.8206L61.8898 33.8852L61.8572 33.9394L61.8327 33.9775C61.8154 34.0038 61.7974 34.0297 61.7787 34.055L61.724 34.1257L61.6764 34.182L61.6428 34.2191L61.5949 34.2686L61.5282 34.332L61.4946 34.3616L61.4418 34.4053L61.4105 34.4297L61.3823 34.4507L61.3788 34.4534C61.1702 34.666 60.9073 34.8305 60.6041 34.9229L60.543 34.9404L49.0427 38.0219C48.9565 38.045 48.5352 38.134 48.1334 38.1345C47.7142 38.135 47.3141 38.046 47.2242 38.0219L35.7239 34.9404C35.4154 34.8578 35.1463 34.7014 34.9306 34.4953L34.8846 34.4507L34.8563 34.4297L34.7949 34.3807L34.7387 34.332L34.7216 34.3164C34.6879 34.2851 34.6554 34.2527 34.6241 34.2191L34.5744 34.1635L34.5221 34.0997L34.5166 34.0927C34.4973 34.0678 34.4786 34.0425 34.4606 34.0166L34.4175 33.9519L34.3771 33.8852L34.3593 33.8537C34.3472 33.8318 34.3355 33.8095 34.3242 33.787L34.3033 33.7438L34.2727 33.6747L34.2689 33.6654C34.2531 33.6271 34.2386 33.5881 34.2254 33.5486L34.2102 33.5009L34.1917 33.4354L34.1802 33.3897C34.1736 33.3615 34.1676 33.333 34.1622 33.3043C34.1579 33.2812 34.154 33.2578 34.1506 33.2343L34.1426 33.1719L34.1362 33.1028L34.134 33.0701L34.1318 33.018L34.1311 32.9655V23.844C34.1311 23.8122 34.1319 23.7806 34.1335 23.7493L34.1353 23.7182L34.1405 23.6565C34.1505 23.5583 34.1681 23.4625 34.1928 23.3695C34.1987 23.3474 34.205 23.3254 34.2117 23.3036C34.2318 23.2382 34.2554 23.1744 34.2823 23.1123C34.2911 23.092 34.3002 23.072 34.3097 23.0521L34.3257 23.0195L34.3568 22.9602L34.3896 22.9028L34.415 22.8616L34.4338 22.8324L34.4759 22.7712L34.4996 22.739L34.5239 22.7074L34.5445 22.6817L34.5822 22.637L34.6377 22.5759L34.6855 22.5275L34.7549 22.463L34.8079 22.4181L34.8668 22.3719L34.9262 22.3291L34.9574 22.308L34.999 22.2813L35.0712 22.2385L35.13 22.2069L35.1786 22.1827L35.2524 22.1494L35.3414 22.1143L35.4145 22.0894L35.4833 22.0691L35.548 22.0526L35.6167 22.0378L35.6552 22.0307L35.7182 22.0209L35.7842 22.0131L35.8385 22.0084L35.9047 22.0048L35.9714 22.0037L36.0182 22.0042C36.0405 22.0048 36.0628 22.0058 36.085 22.0071L36.1351 22.0108C36.1786 22.0147 36.2216 22.02 36.2642 22.0268L36.3385 22.0403L36.3949 22.0526L36.4583 22.0688L36.5118 22.0843L36.569 22.1029L36.639 22.1285L36.6712 22.1414L36.7514 22.1766L36.8338 22.2178L36.8875 22.2475L36.9538 22.2875L37.0009 22.3184L37.0442 22.3485L37.0907 22.383L37.1337 22.4171L37.178 22.4544L37.2395 22.5103L37.2879 22.558L37.3523 22.6275L37.4005 22.6844L37.4302 22.7219L37.4863 22.7987L37.5192 22.848L37.5573 22.9097L37.5967 22.9799L37.6006 22.9872C37.6116 23.0083 37.6224 23.0296 37.6327 23.0512L37.6477 23.0835L37.681 23.1615L37.6968 23.2024L37.713 23.2477L37.7174 23.2609C37.7292 23.2962 37.74 23.3321 37.7497 23.3684C37.7669 23.4331 37.7808 23.4992 37.7909 23.5665C37.7968 23.6052 37.8014 23.6442 37.8048 23.6836C37.8079 23.7189 37.8099 23.7544 37.8109 23.7902L37.8117 23.844V31.4865L48.1334 34.2523L58.4552 31.4865V23.844C58.4552 23.79 58.4575 23.7365 58.462 23.6837C58.4654 23.6442 58.4701 23.6052 58.4759 23.5665C58.4861 23.4992 58.4999 23.4331 58.5172 23.3683C58.5269 23.3321 58.5376 23.2962 58.5495 23.2608L58.5584 23.2346L58.5701 23.2024L58.6009 23.1249L58.6047 23.1162C58.6141 23.0943 58.624 23.0726 58.6342 23.0512L58.65 23.019L58.6872 22.9488L58.7163 22.8984L58.7477 22.848L58.7894 22.7861L58.8164 22.7487L58.8367 22.7219L58.8664 22.6844L58.9146 22.6274L58.97 22.5673L59.0274 22.5103L59.0458 22.493L59.0889 22.4543L59.1462 22.4066L59.198 22.3665L59.2455 22.3324L59.2992 22.2964L59.3369 22.2727L59.3964 22.2379L59.4581 22.2048L59.5036 22.1822L59.5638 22.1549L59.5957 22.1414L59.6541 22.1185L59.7218 22.0948L59.7704 22.0796L59.8497 22.058L59.9161 22.0428L59.9394 22.0381C60.0023 22.0257 60.0666 22.0166 60.1318 22.0108L60.1819 22.0071C60.2041 22.0058 60.2263 22.0048 60.2487 22.0042L60.2955 22.0037ZM45.1521 26.0847L45.1591 26.0843H51.1077L51.1147 26.0847L51.1374 26.0843L51.1607 26.0847C51.5236 26.097 51.8141 26.3957 51.8141 26.7623C51.8141 26.8435 51.7998 26.9214 51.7736 26.9935C51.3697 28.5866 49.9289 29.765 48.2135 29.765L48.1334 29.7641L48.0534 29.765C46.338 29.765 44.8972 28.5866 44.4932 26.9935C44.4671 26.9214 44.4528 26.8435 44.4528 26.7623C44.4528 26.3957 44.7433 26.097 45.1062 26.0847L45.1294 26.0843C45.137 26.0843 45.1446 26.0845 45.1521 26.0847ZM53.4143 18.7231C54.7842 18.7231 55.8947 19.8336 55.8947 21.2035C55.8947 22.5734 54.7842 23.6839 53.4143 23.6839C52.0444 23.6839 50.9339 22.5734 50.9339 21.2035C50.9339 19.8336 52.0444 18.7231 53.4143 18.7231ZM43.0126 18.7231C44.3825 18.7231 45.493 19.8336 45.493 21.2035C45.493 22.5734 44.3825 23.6839 43.0126 23.6839C41.6427 23.6839 40.5322 22.5734 40.5322 21.2035C40.5322 19.8336 41.6427 18.7231 43.0126 18.7231ZM48.1334 0L48.1864 0.000476287C49.7528 0.0286957 51.0139 1.30731 51.0139 2.88048C51.0139 3.34186 50.9054 3.77791 50.7126 4.16451C50.5952 4.39989 50.4465 4.6169 50.2721 4.81014L50.2343 4.85111C50.1835 4.90535 50.1305 4.95761 50.0756 5.00777L50.0339 5.04507C49.9781 5.09418 49.9202 5.14116 49.8607 5.18588L49.8157 5.21892L49.7774 5.24607L49.7236 5.28264L49.6767 5.31307L49.6388 5.33681L49.6004 5.35996C49.587 5.3679 49.5735 5.37576 49.5599 5.38351C49.4856 5.42593 49.4093 5.46513 49.3311 5.50092L49.2794 5.524L49.2493 5.53684C49.2011 5.55714 49.1521 5.57617 49.1025 5.59387L49.0672 5.60623L49.0137 5.62398L49.0136 8.39804L60.7499 11.543C61.4794 11.7384 61.9883 12.3459 62.0934 13.048C62.0984 13.071 62.103 13.0941 62.1072 13.1175C62.1181 13.1789 62.126 13.2413 62.1307 13.3047L62.1348 13.3811L62.1358 13.4116V18.7231L62.1352 18.7699C62.1324 18.8832 62.1193 18.9939 62.0969 19.1012C62.0882 19.1428 62.0781 19.1838 62.0667 19.2244C62.0443 19.3035 62.0168 19.3804 61.9846 19.4547C61.9758 19.475 61.9667 19.4951 61.9572 19.5149L61.9422 19.5455L61.9084 19.6099L61.88 19.6595L61.8519 19.7055L61.833 19.7347L61.7909 19.7959L61.7687 19.8262L61.7223 19.8854L61.6847 19.9301L61.6291 19.9912L61.582 20.039L61.5184 20.0983L61.459 20.149L61.4148 20.184L61.3407 20.238L61.3094 20.2591L61.2679 20.2858L61.1956 20.3286L61.1369 20.3602L61.0882 20.3844L61.0378 20.4076L60.9766 20.4332L60.9274 20.452L60.853 20.4774L60.7962 20.4945L60.7189 20.5145L60.6501 20.5293L60.6117 20.5364L60.5486 20.5462L60.4827 20.554L60.4284 20.5587L60.3622 20.5622L60.2955 20.5634L60.2487 20.5628L60.1819 20.56L60.1318 20.5562C60.0883 20.5524 60.0453 20.5471 60.0027 20.5403L59.9283 20.5268L59.872 20.5145L59.8086 20.4983L59.7551 20.4828L59.6979 20.4642L59.6279 20.4386L59.5957 20.4257L59.5155 20.3905L59.433 20.3492L59.3707 20.3145L59.3131 20.2796L59.2659 20.2487L59.2227 20.2186L59.1762 20.184L59.1332 20.15L59.0885 20.1124L59.0271 20.0565L58.979 20.0091L58.9145 19.9396L58.863 19.8785L58.8349 19.8429L58.7806 19.7683L58.7477 19.7191L58.7076 19.654L58.6694 19.5857L58.6647 19.5768C58.6542 19.5568 58.644 19.5364 58.6342 19.5159C58.624 19.4945 58.6141 19.4728 58.6047 19.451L58.5928 19.4226L58.5813 19.3941C58.5733 19.3737 58.5657 19.3532 58.5584 19.3324C58.551 19.3111 58.5439 19.2896 58.5371 19.2679C58.5203 19.2134 58.5058 19.1578 58.494 19.1012C58.4736 19.0036 58.461 18.9031 58.4568 18.8005L58.4552 18.7231V14.9017L48.1334 12.1361L37.8117 14.9017V18.7231C37.8117 18.8527 37.7983 18.9792 37.7728 19.1012C37.761 19.1578 37.7466 19.2134 37.7297 19.268C37.723 19.2896 37.7159 19.3111 37.7084 19.3325L37.6973 19.3634L37.6741 19.4226L37.6622 19.4509C37.6528 19.4728 37.6429 19.4945 37.6327 19.5159L37.6177 19.5465L37.5822 19.6138L37.5505 19.6687L37.5192 19.7191L37.4775 19.781L37.4529 19.8151L37.4319 19.8429L37.3973 19.8867L37.3523 19.9396L37.2968 19.9998L37.2398 20.0565L37.2218 20.0734L37.1784 20.1124L37.1043 20.1735L37.0566 20.2096L37.0009 20.2487L36.9405 20.2879L36.9078 20.3077L36.8437 20.3439L36.7903 20.3717L36.7251 20.4025L36.7031 20.4122L36.6712 20.4257L36.6127 20.4486L36.5451 20.4722L36.4964 20.4874L36.4171 20.5091L36.3507 20.5243L36.3275 20.529C36.2646 20.5413 36.2003 20.5505 36.1351 20.5562L36.0654 20.5611L36.0182 20.5628L35.9714 20.5634L35.9047 20.5622L35.8112 20.5565L35.755 20.5508L35.6939 20.5426L35.6552 20.5364L35.5805 20.5218L35.5373 20.5119L35.4833 20.498L35.4137 20.4774L35.3287 20.4481L35.2524 20.4177L35.1786 20.3844L35.13 20.3602L35.0617 20.3232L34.9941 20.2827L34.9574 20.2591L34.8868 20.21L34.8465 20.1797L34.8078 20.149L34.7421 20.0926L34.6849 20.039L34.6377 19.9912L34.6211 19.9735L34.5821 19.9301L34.521 19.856L34.4982 19.8262L34.4598 19.7731L34.4338 19.7347L34.4002 19.6817L34.3653 19.6222L34.3401 19.5757C34.3296 19.5557 34.3195 19.5354 34.3097 19.5149C34.3002 19.4951 34.2911 19.475 34.2823 19.4548C34.25 19.3804 34.2225 19.3035 34.2002 19.2244C34.1888 19.1838 34.1787 19.1428 34.17 19.1012C34.1476 18.9939 34.1345 18.8832 34.1317 18.7699L34.1311 18.7231V13.4112L34.1326 13.3684C34.1359 13.2831 34.1451 13.1994 34.1597 13.1175L34.1672 13.0775L34.1735 13.048C34.2762 12.3615 34.7651 11.7654 35.4686 11.5566L35.5169 11.543L47.2533 8.39804L47.2532 5.62398L47.2352 5.61815C47.2114 5.61036 47.1878 5.60226 47.1643 5.59387C47.1148 5.57617 47.0658 5.55714 47.0175 5.53684L46.9875 5.524L46.9357 5.50092C46.8575 5.46513 46.7812 5.42593 46.707 5.38353L46.6665 5.35994C46.6408 5.34472 46.6153 5.32909 46.5901 5.31307L46.5282 5.27256C46.5022 5.25512 46.4765 5.23722 46.4512 5.21892L46.4062 5.18588C46.3466 5.14116 46.2888 5.09418 46.2329 5.04507L46.1913 5.00777C46.1364 4.95761 46.0834 4.90535 46.0325 4.85111L45.9948 4.81014C45.8203 4.6169 45.6717 4.39989 45.5543 4.16456C45.3614 3.77791 45.253 3.34186 45.253 2.88048C45.253 1.28963 46.5426 0 48.1334 0ZM65.4163 18.4831L65.4631 18.4837C66.4421 18.5081 67.2312 19.297 67.256 20.2759L67.2566 20.3234V22.0837C67.2566 23.0844 66.4578 23.8986 65.4631 23.9234L65.4163 23.924C64.3999 23.924 63.576 23.1 63.576 22.0837V20.3234C63.576 19.307 64.3999 18.4831 65.4163 18.4831ZM30.8506 23.924C29.8342 23.924 29.0103 23.1 29.0103 22.0837V20.3234C29.0103 19.307 29.8342 18.4831 30.8506 18.4831L30.8973 18.4837C31.8763 18.5081 32.6655 19.297 32.6903 20.2759L32.6909 20.3234V22.0837C32.6909 23.0844 31.8921 23.8986 30.8973 23.9234L30.8506 23.924Z" fill="white"/>
</svg>
