<svg width="191" height="128" viewBox="0 0 191 128" fill="none" xmlns="http://www.w3.org/2000/svg">
<path fill-rule="evenodd" clip-rule="evenodd" d="M170.359 110.96L170.366 110.964C171.165 111.428 171.439 112.451 170.979 113.253L163.195 126.805C163.14 126.911 163.073 127.012 162.994 127.105C162.82 127.313 162.604 127.47 162.365 127.57L162.274 127.606L162.193 127.632L162.113 127.654L162.013 127.675L161.915 127.69L161.831 127.698L161.782 127.701L161.707 127.702L161.627 127.699L161.582 127.696L161.518 127.69L161.42 127.675L161.349 127.661L161.286 127.645L161.202 127.62L161.149 127.602C160.9 127.512 160.672 127.363 160.487 127.16C160.387 127.051 160.304 126.932 160.238 126.805L152.454 113.253C152.006 112.473 152.254 111.483 153.004 111.003L153.074 110.96C153.85 110.515 154.834 110.763 155.308 111.511L155.346 111.575L161.716 122.666L168.087 111.575C168.545 110.778 169.562 110.503 170.359 110.96ZM133.562 110.739C134.438 110.739 135.157 111.413 135.228 112.272L135.232 112.345L135.233 112.38L135.233 125.784C135.233 126.708 134.485 127.456 133.562 127.456H120.153C119.23 127.456 118.481 126.708 118.481 125.784V112.411C118.481 111.487 119.23 110.739 120.153 110.739H133.562ZM53.989 110.739C54.9122 110.739 55.6607 111.487 55.6607 112.411C55.6607 113.334 54.9122 114.082 53.989 114.082L42.2588 114.082V117.426L53.989 117.426C54.8655 117.426 55.5844 118.1 55.655 118.959L55.6593 119.032L55.6607 119.101V125.784C55.6607 126.708 54.9122 127.456 53.989 127.456H40.5802C39.657 127.456 38.9085 126.708 38.9085 125.784C38.9085 124.861 39.657 124.113 40.5802 124.113L52.3102 124.112V120.769L40.5802 120.769C39.657 120.769 38.9085 120.021 38.9085 119.097V112.411C38.9085 111.487 39.657 110.739 40.5802 110.739H53.989ZM73.451 110.739C74.3743 110.739 75.1227 111.487 75.1227 112.411C75.1227 113.334 74.3743 114.082 73.451 114.082L61.7209 114.082V124.112L73.451 124.113C74.3743 124.113 75.1227 124.861 75.1227 125.784C75.1227 126.708 74.3743 127.456 73.451 127.456H60.0423C59.119 127.456 58.3706 126.708 58.3706 125.784V112.411C58.3706 111.487 59.119 110.739 60.0423 110.739H73.451ZM188.992 110.739C189.915 110.739 190.663 111.487 190.663 112.411C190.663 113.334 189.915 114.082 188.992 114.082L177.262 114.082V124.112L188.992 124.113C189.915 124.113 190.663 124.861 190.663 125.784C190.663 126.708 189.915 127.456 188.992 127.456H175.583C174.66 127.456 173.911 126.708 173.911 125.784V112.411C173.911 111.487 174.66 110.739 175.583 110.739H188.992ZM34.7732 110.739C35.6965 110.739 36.4449 111.487 36.4449 112.411C36.4449 113.334 35.6965 114.082 34.7732 114.082L23.0431 114.082V124.112L34.7732 124.113C35.6965 124.113 36.4449 124.861 36.4449 125.784C36.4449 126.708 35.6965 127.456 34.7732 127.456H21.3645C20.4412 127.456 19.6928 126.708 19.6928 125.784V112.411C19.6928 111.487 20.4412 110.739 21.3645 110.739H34.7732ZM92.6668 110.739C93.5432 110.739 94.2622 111.413 94.3328 112.272L94.3371 112.345L94.3381 112.38L94.3385 125.781C94.3385 126.706 93.5884 127.456 92.6632 127.456C91.738 127.456 90.988 126.706 90.988 125.781L90.988 114.082H80.9366L80.9367 125.781C80.9367 126.706 80.1867 127.456 79.2615 127.456C78.3363 127.456 77.5863 126.706 77.5863 125.781V112.411L77.5877 112.342C77.6238 111.45 78.3578 110.739 79.258 110.739H92.6668ZM8.55195 110.739C8.82968 110.739 9.09161 110.807 9.32209 110.927L9.39773 110.968C9.54439 111.045 9.682 111.145 9.80527 111.268L16.3055 117.748C16.3488 117.781 16.391 117.815 16.4318 117.852L16.4954 117.913C16.8234 118.242 16.9858 118.673 16.9826 119.104C16.9856 119.508 16.8432 119.912 16.555 120.232L16.492 120.299C16.4329 120.358 16.3705 120.411 16.3055 120.459L9.80527 126.94C9.62164 127.123 9.40621 127.255 9.1768 127.336C8.98378 127.413 8.77287 127.456 8.55195 127.456H1.90242C0.979162 127.456 0.230713 126.708 0.230713 125.784V112.411C0.230713 111.487 0.979162 110.739 1.90242 110.739H8.55195ZM139.619 110.739C140.521 110.739 141.256 111.452 141.292 112.345L141.294 112.414L141.294 124.112L153.024 124.113C153.924 124.113 154.658 124.824 154.694 125.715L154.696 125.784C154.696 126.684 153.984 127.418 153.093 127.455L153.024 127.456H139.615C138.715 127.456 137.981 126.745 137.945 125.853L137.943 125.784V112.414C137.943 111.489 138.693 110.739 139.619 110.739ZM131.883 114.082H121.832V124.112H131.883V114.082ZM7.88579 114.082H3.58393V124.112H7.89859L12.9225 119.104L7.88579 114.082ZM66.7502 117.426C67.6734 117.426 68.4219 118.174 68.4219 119.097C68.4219 119.998 67.7104 120.732 66.8191 120.768L66.7431 120.769C65.8199 120.769 65.0714 120.021 65.0714 119.097C65.0714 118.197 65.7829 117.463 66.6742 117.427L66.7502 117.426ZM182.291 117.426C183.214 117.426 183.963 118.174 183.963 119.097C183.963 119.998 183.251 120.732 182.36 120.768L182.284 120.769C181.361 120.769 180.612 120.021 180.612 119.097C180.612 118.197 181.324 117.463 182.215 117.427L182.291 117.426ZM28.0724 117.426C28.9956 117.426 29.7441 118.174 29.7441 119.097C29.7441 119.998 29.0326 120.732 28.1413 120.768L28.0654 120.769C27.1421 120.769 26.3937 120.021 26.3937 119.097C26.3937 118.197 27.1052 117.463 27.9965 117.427L28.0724 117.426ZM106.647 127.698L106.598 127.701L106.48 127.701L106.398 127.696L106.334 127.69L106.237 127.675L106.165 127.661L106.102 127.645L106.018 127.62L105.965 127.602C105.716 127.512 105.488 127.363 105.304 127.16C105.204 127.051 105.121 126.932 105.054 126.805L97.2708 113.253C96.8228 112.473 97.0702 111.483 97.8204 111.003L97.8907 110.96C98.6662 110.515 99.6501 110.763 100.124 111.511L100.163 111.575L106.533 122.666L112.903 111.575C113.349 110.799 114.324 110.518 115.11 110.925L115.182 110.964C115.982 111.428 116.256 112.451 115.795 113.253L108.012 126.805C107.956 126.911 107.889 127.012 107.811 127.105C107.637 127.313 107.42 127.47 107.181 127.57L107.09 127.606L106.991 127.637L106.929 127.654L106.829 127.675L106.732 127.69L106.647 127.698ZM43.0065 87.695C43.9519 87.695 44.7184 88.4614 44.7184 89.4068V96.1923C44.7184 97.1141 43.9898 97.8657 43.0771 97.9027L42.9906 97.9041L31.1791 97.9041L31.1791 102.946C31.1791 103.891 30.4127 104.658 29.4673 104.658C28.5219 104.658 27.7554 103.891 27.7554 102.946V89.4068C27.7554 88.4614 28.5219 87.695 29.4673 87.695C29.4962 87.695 29.525 87.6957 29.5536 87.6971L29.596 87.6955L43.0065 87.695ZM41.2944 91.1503H31.1791V94.4485H41.2944V91.1503ZM62.6478 87.695C63.5932 87.695 64.3596 88.4614 64.3596 89.4068V96.1923C64.3596 97.1141 63.631 97.8657 62.7183 97.9027L62.6319 97.9041L60.4812 97.9041L63.8242 101.278C64.4945 101.954 64.4945 103.045 63.8242 103.721C63.1807 104.371 62.1442 104.394 61.4726 103.788L61.4033 103.721L55.1309 97.3908C54.4605 96.7143 54.4605 95.624 55.1309 94.9474C55.4984 94.5765 55.9942 94.4098 56.4769 94.4481L60.9357 94.4485V91.1503H50.8203L50.8204 102.946C50.8204 103.891 50.054 104.658 49.1086 104.658C48.1631 104.658 47.3967 103.891 47.3967 102.946V89.4068C47.3967 88.4614 48.1631 87.695 49.1086 87.695C49.1375 87.695 49.1663 87.6957 49.1949 87.6971L49.2373 87.6955L62.6478 87.695ZM82.7354 104.658H69.3677C69.3391 104.658 69.3107 104.657 69.2825 104.656C69.2539 104.657 69.2252 104.658 69.1962 104.658C68.2508 104.658 67.4844 103.891 67.4844 102.946V89.4068C67.4844 88.4614 68.2508 87.695 69.1962 87.695C69.2252 87.695 69.2539 87.6957 69.2825 87.6971L69.325 87.6955L82.7354 87.695C83.6809 87.695 84.4473 88.4614 84.4473 89.4068V102.946C84.4473 103.891 83.6809 104.658 82.7354 104.658ZM81.0233 91.1503H70.908V101.202H81.0233V91.1503ZM102.361 87.695C103.315 87.695 104.089 88.4685 104.089 89.4227V102.93C104.089 103.884 103.315 104.658 102.361 104.658H88.8533C87.8991 104.658 87.1256 103.884 87.1256 102.93C87.1256 101.976 87.8991 101.202 88.8533 101.202L100.633 101.202V91.1503L97.3348 91.1504C96.3806 91.1504 95.6071 90.3769 95.6071 89.4227C95.6071 88.4685 96.3806 87.695 97.3348 87.695H102.361ZM141.643 87.695C142.598 87.695 143.371 88.4685 143.371 89.4227C143.371 90.3769 142.598 91.1504 141.643 91.1504L136.617 91.1503L136.617 102.93C136.617 103.884 135.844 104.658 134.89 104.658C133.935 104.658 133.162 103.884 133.162 102.93L133.162 91.1503L128.136 91.1504C127.182 91.1504 126.408 90.3769 126.408 89.4227C126.408 88.4685 127.182 87.695 128.136 87.695H141.643ZM161.3 104.658H147.933C147.904 104.658 147.876 104.657 147.848 104.656C147.819 104.657 147.79 104.658 147.761 104.658C146.816 104.658 146.049 103.891 146.049 102.946V89.4068C146.049 88.4614 146.816 87.695 147.761 87.695C147.79 87.695 147.819 87.6957 147.848 87.6971L147.89 87.6955L161.3 87.695C162.246 87.695 163.012 88.4614 163.012 89.4068V102.946C163.012 103.891 162.246 104.658 161.3 104.658ZM159.588 91.1503H149.473V101.202H159.588V91.1503ZM122.034 87.695C122.97 87.695 123.73 88.4544 123.73 89.3913C123.73 90.3281 122.97 91.0876 122.034 91.0876L110.159 91.0872V101.265L122.034 101.265C122.97 101.265 123.73 102.025 123.73 102.962C123.73 103.898 122.97 104.658 122.034 104.658H108.463C107.526 104.658 106.767 103.898 106.767 102.962V89.3913C106.767 88.4544 107.526 87.695 108.463 87.695H122.034ZM115.248 94.4801C116.185 94.4801 116.945 95.2396 116.945 96.1764C116.945 97.1133 116.185 97.8727 115.248 97.8727C114.312 97.8727 113.552 97.1133 113.552 96.1764C113.552 95.2396 114.312 94.4801 115.248 94.4801Z" fill="#666666"/>
<path fill-rule="evenodd" clip-rule="evenodd" d="M120.091 44.0073L120.225 44.0097L120.412 44.0211L120.524 44.0325L120.646 44.0489L120.723 44.0614L120.873 44.0905L120.959 44.1103L121.067 44.1382L121.181 44.1713L121.376 44.238L121.529 44.2989L121.677 44.3654L121.774 44.4137L121.91 44.4877L122.046 44.5687L122.119 44.6159L122.26 44.7141L122.341 44.7748L122.418 44.8362L122.524 44.9261L122.644 45.0371L122.758 45.1517L122.792 45.1871L122.87 45.274L122.979 45.4056L123.031 45.4733L123.114 45.588L123.166 45.6648L123.215 45.7405L123.276 45.8421L123.349 45.9745C123.372 46.0171 123.394 46.0605 123.415 46.1043C123.433 46.144 123.452 46.1841 123.469 46.2246C123.523 46.3488 123.57 46.4765 123.61 46.6073C123.624 46.6508 123.636 46.6948 123.648 46.7391C123.685 46.8785 123.714 47.0212 123.735 47.1666L123.753 47.3173L123.759 47.3743C123.765 47.4471 123.769 47.5205 123.771 47.5944L123.772 47.6879V65.931L123.77 66.036L123.764 66.1709L123.755 66.2788L123.745 66.3789L123.733 66.4687C123.726 66.5156 123.718 66.5623 123.709 66.6088L123.692 66.6944L123.666 66.8085L123.641 66.9076C123.623 66.9705 123.605 67.0328 123.584 67.0943C123.566 67.1489 123.547 67.2018 123.527 67.2537L123.467 67.3997C123.441 67.4587 123.414 67.5168 123.385 67.5741L123.351 67.6412L123.28 67.7704L123.215 67.8789L123.166 67.9551C123.131 68.0076 123.095 68.0593 123.058 68.11L122.948 68.2514L122.853 68.364L122.786 68.4382L122.69 68.5372L122.556 68.664L122.489 68.7232L122.384 68.8105L122.321 68.8594L122.265 68.9014L122.258 68.9068C121.84 69.332 121.315 69.6611 120.708 69.8458L120.586 69.8809L97.5855 76.0438C97.4132 76.09 96.5705 76.2681 95.767 76.2691C94.9286 76.2701 94.1283 76.092 93.9485 76.0438L70.948 69.8809C70.3309 69.7155 69.7928 69.4027 69.3613 68.9906L69.2693 68.9014L69.2129 68.8594L69.0899 68.7613L68.9776 68.6639L68.9434 68.6327C68.876 68.5703 68.8109 68.5054 68.7483 68.4381L68.6489 68.3269L68.5443 68.1994L68.5333 68.1854C68.4948 68.1356 68.4574 68.0849 68.4214 68.0332L68.3352 67.9039L68.2543 67.7704L68.2187 67.7075C68.1945 67.6636 68.1711 67.619 68.1485 67.574L68.1067 67.4875L68.0456 67.3493L68.0379 67.3308C68.0064 67.2542 67.9774 67.1763 67.9509 67.0971L67.9206 67.0018L67.8835 66.8709L67.8606 66.7793C67.8473 66.723 67.8353 66.666 67.8246 66.6086C67.816 66.5623 67.8082 66.5156 67.8013 66.4686L67.7853 66.3438L67.7725 66.2057L67.7682 66.1402L67.7638 66.0359L67.7624 65.931V47.6879C67.7624 47.6244 67.764 47.5613 67.7672 47.4985L67.7708 47.4364L67.7812 47.313C67.8011 47.1167 67.8364 46.925 67.8858 46.739C67.8976 46.6948 67.9102 46.6508 67.9236 46.6071C67.9637 46.4765 68.0109 46.3488 68.0647 46.2247C68.0823 46.1841 68.1006 46.144 68.1195 46.1043L68.1515 46.0389L68.2138 45.9204L68.2794 45.8057L68.3301 45.7232L68.3678 45.6647L68.452 45.5424L68.4993 45.4781L68.5479 45.4149L68.5892 45.3633L68.6645 45.274L68.7756 45.1518L68.8711 45.055L69.01 44.9261L69.1159 44.8362L69.2338 44.7437L69.3525 44.6582L69.415 44.6159L69.4981 44.5626L69.6426 44.4769L69.7601 44.4137L69.8574 44.3654L70.0049 44.2989L70.1829 44.2287L70.3292 44.1788L70.4668 44.1382L70.5961 44.1052L70.7336 44.0756L70.8106 44.0614L70.9366 44.0419L71.0685 44.0261L71.1772 44.0168L71.3095 44.0097L71.443 44.0073L71.5365 44.0085C71.5812 44.0096 71.6258 44.0115 71.6701 44.0142L71.7704 44.0217C71.8573 44.0293 71.9434 44.04 72.0285 44.0536L72.1772 44.0806L72.2899 44.1052L72.4168 44.1375L72.5238 44.1686L72.6381 44.2057L72.7781 44.2569L72.8425 44.2827L73.0029 44.3533L73.1678 44.4357L73.2752 44.495L73.4077 44.575L73.502 44.6367L73.5885 44.697L73.6815 44.7661L73.7676 44.8342L73.8561 44.9087L73.9792 45.0206L74.0759 45.116L74.2048 45.2549L74.3011 45.3687L74.3605 45.4437L74.4727 45.5975L74.5385 45.696L74.6148 45.8195L74.6935 45.9598L74.7013 45.9745C74.7234 46.0165 74.7449 46.0592 74.7655 46.1024L74.7956 46.167L74.8622 46.3231L74.8938 46.4048L74.9261 46.4955L74.935 46.5218C74.9586 46.5925 74.9802 46.6642 74.9995 46.7368C75.034 46.8661 75.0617 46.9984 75.082 47.133C75.0937 47.2103 75.103 47.2884 75.1098 47.3673C75.1159 47.4378 75.12 47.5088 75.122 47.5803L75.1236 47.6879V62.973L95.767 68.5045L116.41 62.973V47.6879C116.41 47.58 116.415 47.4731 116.424 47.3675C116.431 47.2884 116.44 47.2103 116.452 47.133C116.472 46.9984 116.5 46.8661 116.535 46.7367C116.554 46.6642 116.575 46.5925 116.599 46.5217L116.617 46.4692L116.64 46.4048L116.702 46.2498L116.709 46.2324C116.728 46.1885 116.748 46.1452 116.769 46.1023L116.8 46.038L116.875 45.8975L116.933 45.7968L116.996 45.696L117.079 45.5722L117.133 45.4975L117.174 45.4437L117.233 45.3687L117.329 45.2549L117.44 45.1345L117.555 45.0206L117.592 44.9859L117.678 44.9087L117.792 44.8131L117.896 44.733L117.991 44.6648L118.099 44.5927L118.174 44.5454L118.293 44.4757L118.416 44.4095L118.507 44.3645L118.628 44.3097L118.692 44.2827L118.808 44.237L118.944 44.1897L119.041 44.1593L119.2 44.116L119.332 44.0856L119.379 44.0762C119.505 44.0515 119.633 44.0332 119.764 44.0217L119.864 44.0142C119.908 44.0115 119.953 44.0096 119.998 44.0085L120.091 44.0073ZM89.8044 52.1694L89.8184 52.1687H101.716L101.73 52.1694L101.775 52.1687L101.822 52.1695C102.547 52.194 103.128 52.7914 103.128 53.5247C103.128 53.6871 103.1 53.8428 103.047 53.987C102.24 57.1731 99.358 59.5299 95.927 59.5299L95.7669 59.5282L95.607 59.5299C92.1761 59.5299 89.2945 57.1731 88.4866 53.987C88.4343 53.8428 88.4058 53.6871 88.4058 53.5247C88.4058 52.7914 88.9867 52.194 89.7125 52.1695L89.759 52.1687C89.7742 52.1687 89.7893 52.1689 89.8044 52.1694ZM106.329 37.4462C109.069 37.4462 111.29 39.6673 111.29 42.407C111.29 45.1468 109.069 47.3679 106.329 47.3679C103.589 47.3679 101.368 45.1468 101.368 42.407C101.368 39.6673 103.589 37.4462 106.329 37.4462ZM85.5253 37.4462C88.2651 37.4462 90.4861 39.6673 90.4861 42.407C90.4861 45.1468 88.2651 47.3679 85.5253 47.3679C82.7855 47.3679 80.5645 45.1468 80.5645 42.407C80.5645 39.6673 82.7855 37.4462 85.5253 37.4462ZM95.767 0L95.8729 0.000952573C99.0057 0.0573915 101.528 2.61462 101.528 5.76096C101.528 6.68372 101.311 7.55582 100.925 8.32902C100.691 8.79978 100.393 9.23379 100.044 9.62028L99.9688 9.70222C99.8671 9.81069 99.7611 9.91522 99.6513 10.0155L99.568 10.0901C99.4563 10.1884 99.3406 10.2823 99.2214 10.3718L99.1316 10.4378L99.055 10.4921L98.9473 10.5653L98.8536 10.6261L98.7777 10.6736L98.7009 10.7199C98.6741 10.7358 98.6471 10.7515 98.62 10.767C98.4714 10.8519 98.3188 10.9302 98.1624 11.0018L98.0589 11.048L97.9988 11.0737C97.9023 11.1143 97.8044 11.1523 97.7052 11.1877L97.6346 11.2125L97.5275 11.248L97.5273 16.7961L121 23.0859C122.459 23.4768 123.477 24.6919 123.687 26.0959C123.697 26.1419 123.706 26.1883 123.715 26.2349C123.736 26.3578 123.752 26.4827 123.762 26.6094L123.77 26.7621L123.772 26.8231V37.4462L123.771 37.5398C123.765 37.7663 123.739 37.9878 123.694 38.2025C123.677 38.2855 123.656 38.3677 123.634 38.4487C123.589 38.607 123.534 38.7608 123.469 38.9095C123.452 38.9501 123.433 38.9902 123.415 39.0299L123.385 39.091L123.317 39.2197L123.26 39.3191L123.204 39.411L123.166 39.4694L123.082 39.5917L123.038 39.6523L122.945 39.7708L122.87 39.8602L122.758 39.9824L122.664 40.0781L122.537 40.1967L122.418 40.298L122.33 40.368L122.182 40.476L122.119 40.5182L122.036 40.5716L121.891 40.6572L121.774 40.7204L121.677 40.7688L121.576 40.8151L121.453 40.8665L121.355 40.9041L121.206 40.9549L121.093 40.989L120.938 41.0289L120.8 41.0585L120.723 41.0727L120.597 41.0923L120.466 41.108L120.357 41.1174L120.225 41.1245L120.091 41.1268L119.998 41.1257L119.864 41.1199L119.764 41.1125C119.677 41.1048 119.591 41.0941 119.506 41.0805L119.357 41.0536L119.244 41.0289L119.117 40.9966L119.01 40.9656L118.896 40.9284L118.756 40.8772L118.692 40.8514L118.531 40.7809L118.366 40.6985L118.241 40.629L118.126 40.5591L118.032 40.4974L117.946 40.4372L117.853 40.3681L117.766 40.3L117.677 40.2247L117.554 40.113L117.458 40.0181L117.329 39.8792L117.226 39.7571L117.17 39.6858L117.061 39.5367L116.996 39.4381L116.915 39.308L116.839 39.1714L116.83 39.1536C116.809 39.1135 116.788 39.0728 116.769 39.0318C116.748 38.989 116.728 38.9457 116.71 38.9019L116.686 38.8452L116.663 38.7882C116.647 38.7474 116.632 38.7063 116.617 38.6649C116.602 38.6223 116.588 38.5793 116.574 38.5359C116.541 38.4269 116.512 38.3156 116.488 38.2023C116.447 38.0071 116.422 37.8062 116.414 37.601L116.41 37.4462V29.8034L95.767 24.2722L75.1236 29.8034V37.4462C75.1236 37.7054 75.0968 37.9583 75.0458 38.2023C75.0222 38.3156 74.9934 38.4269 74.9596 38.536C74.9462 38.5793 74.932 38.6223 74.917 38.665L74.8947 38.7268L74.8484 38.8452L74.8246 38.9017C74.8057 38.9457 74.786 38.989 74.7655 39.0318L74.7355 39.0931L74.6645 39.2277L74.6012 39.3374L74.5385 39.4382L74.4551 39.562L74.4059 39.6302L74.364 39.6858L74.2947 39.7734L74.2048 39.8793L74.0938 39.9996L73.9798 40.113L73.9438 40.1468L73.8569 40.2248L73.7087 40.347L73.6133 40.4192L73.502 40.4974L73.3812 40.5757L73.3158 40.6154L73.1876 40.6879L73.0807 40.7433L72.9504 40.805L72.9063 40.8244L72.8425 40.8514L72.7256 40.8972L72.5904 40.9445L72.493 40.9749L72.3344 41.0181L72.2017 41.0486L72.1552 41.058C72.0293 41.0827 71.9008 41.101 71.7703 41.1125L71.631 41.1221L71.5365 41.1257L71.443 41.1268L71.3095 41.1245L71.1225 41.1131L71.0101 41.1017L70.888 41.0853L70.8105 41.0727L70.6612 41.0436L70.5747 41.0238L70.4668 40.996L70.3276 40.9548L70.1576 40.8962L70.0049 40.8353L69.8574 40.7687L69.7601 40.7204L69.6236 40.6465L69.4883 40.5655L69.415 40.5182L69.2738 40.42L69.1931 40.3594L69.1158 40.2979L68.9843 40.1852L68.87 40.078L68.7756 39.9824L68.7424 39.9471L68.6644 39.8602L68.5422 39.7119L68.4965 39.6523L68.4198 39.5462L68.3678 39.4694L68.3005 39.3634L68.2308 39.2444L68.1803 39.1514C68.1594 39.1114 68.1391 39.0708 68.1195 39.0299C68.1006 38.9902 68.0823 38.9501 68.0648 38.9096C68.0002 38.7608 67.9452 38.607 67.9006 38.4489C67.8777 38.3677 67.8575 38.2855 67.8401 38.2023C67.7953 37.9878 67.7692 37.7663 67.7635 37.5398L67.7624 37.4462V26.8223L67.7653 26.7369C67.772 26.5662 67.7903 26.3987 67.8195 26.2349L67.8346 26.1551L67.8471 26.0959C68.0526 24.7231 69.0303 23.5309 70.4374 23.1132L70.534 23.0859L94.0067 16.7961L94.0066 11.248L93.9706 11.2363C93.923 11.2207 93.8758 11.2045 93.8288 11.1877C93.7297 11.1523 93.6318 11.1143 93.5352 11.0737L93.4752 11.048L93.3716 11.0018C93.2152 10.9302 93.0626 10.8519 92.9141 10.7671L92.833 10.7199C92.7817 10.6894 92.7308 10.6582 92.6804 10.6261L92.5565 10.5451C92.5046 10.5102 92.4532 10.4744 92.4025 10.4378L92.3126 10.3718C92.1934 10.2823 92.0778 10.1884 91.966 10.0901L91.8828 10.0155C91.7729 9.91522 91.667 9.81069 91.5652 9.70222L91.4898 9.62028C91.1408 9.23379 90.8435 8.79978 90.6087 8.32912C90.223 7.55582 90.0061 6.68372 90.0061 5.76096C90.0061 2.57927 92.5853 0 95.767 0ZM130.333 36.9661L130.426 36.9673C132.384 37.0162 133.963 38.594 134.012 40.5517L134.013 40.6468V44.1673C134.013 46.1688 132.416 47.7972 130.426 47.8468L130.333 47.848C128.3 47.848 126.652 46.2001 126.652 44.1673V40.6468C126.652 38.614 128.3 36.9661 130.333 36.9661ZM61.2013 47.848C59.1685 47.848 57.5207 46.2001 57.5207 44.1673V40.6468C57.5207 38.614 59.1685 36.9661 61.2013 36.9661L61.2948 36.9673C63.2528 37.0162 64.8311 38.594 64.8807 40.5517L64.8819 40.6468V44.1673C64.8819 46.1688 63.2843 47.7972 61.2948 47.8468L61.2013 47.848Z" fill="url(#paint0_angular_3_72)"/>
<defs>
<radialGradient id="paint0_angular_3_72" cx="0" cy="0" r="1" gradientUnits="userSpaceOnUse" gradientTransform="translate(95.767 38.1345) rotate(155.85) scale(41.9149 41.8335)">
<stop offset="0.15625" stop-color="#FF8D00"/>
<stop offset="0.536458" stop-color="#FF00FE"/>
<stop offset="1" stop-color="#0094FF"/>
</radialGradient>
</defs>
</svg>
